<svg width="32" height="32" viewBox="0 0 32 32" xmlns="http://www.w3.org/2000/svg">
  <!-- Фон -->
  <rect width="32" height="32" fill="#f5eedc"/>
  
  <!-- Почва -->
  <path d="M8 24 L16 20 L24 24 Z" fill="#1a3d2b"/>
  
  <!-- Ствол -->
  <path d="M14 18 C14 16, 15 14, 16 14 C17 14, 18 16, 18 18 L18 24 L14 24 Z" fill="#8b5e3c"/>
  <path d="M14 18 C14 16, 15 14, 16 14 C17 14, 18 16, 18 18 L18 24 L14 24 Z" fill="#6b452c" opacity="0.5"/>
  
  <!-- Крона -->
  <path d="M16 10 C12 10, 10 14, 10 18 C10 22, 12 26, 16 26 C20 26, 22 22, 22 18 C22 14, 20 10, 16 10 Z" fill="#3a8c4a"/>
  <path d="M16 10 C12 10, 10 14, 10 18 C10 22, 12 26, 16 26 C20 26, 22 22, 22 18 C22 14, 20 10, 16 10 Z" fill="#2d6c3a" opacity="0.7"/>
</svg>
