<svg width="32" height="32" viewBox="0 0 32 32" xmlns="http://www.w3.org/2000/svg">
  <!-- Фон (прозрачный) -->
  <rect width="32" height="32" fill="#ffffff" fill-opacity="0"/>

  <!-- Почва (тонкий зелёный овал у основания) -->
  <ellipse cx="16" cy="30" rx="8" ry="2" fill="#1a3d2b"/>

  <!-- Ствол -->
  <path d="M14 26 C14 24, 15 22, 16 22 C17 22, 18 24, 18 26 L18 30 L14 30 Z" fill="#8b5e3c"/>
  <!-- Тень/объём ствола -->
  <path d="M14 26 C14 24, 15 22, 16 22 C17 22, 18 24, 18 26 L18 30 L14 30 Z" fill="#6b452c" opacity="0.5"/>

  <!-- Крона — 3 яруса с "пышными" краями -->
  <!-- Верхний ярус -->
  <path d="M16 10 C12 10, 10 14, 10 18 C10 22, 12 26, 16 26 C20 26, 22 22, 22 18 C22 14, 20 10, 16 10 Z" fill="#3a8c4a"/>
  <!-- Средний ярус -->
  <path d="M16 14 C10 14, 8 18, 8 22 C8 26, 10 30, 16 30 C22 30, 24 26, 24 22 C24 18, 22 14, 16 14 Z" fill="#3a8c4a" opacity="0.9"/>
  <!-- Нижний ярус -->
  <path d="M16 18 C6 18, 4 22, 4 26 C4 30, 6 34, 16 34 C26 34, 28 30, 28 26 C28 22, 26 18, 16 18 Z" fill="#3a8c4a" opacity="0.8"/>

  <!-- Ветви (упрощённые линии) -->
  <path d="M16 22 L12 20 L10 22" stroke="#6b452c" stroke-width="0.8" fill="none"/>
  <path d="M16 22 L20 20 L22 22" stroke="#6b452c" stroke-width="0.8" fill="none"/>
  <path d="M16 18 L14 16 L12 18" stroke="#6b452c" stroke-width="0.8" fill="none"/>
  <path d="M16 18 L18 16 L20 18" stroke="#6b452c" stroke-width="0.8" fill="none"/>
</svg>
